<svg width="879" height="184" viewBox="0 0 879 184" fill="none" xmlns="http://www.w3.org/2000/svg">
<path d="M238.4 113.45H215.6C215.5 120.05 216.7 125.75 219.2 130.55C221.7 135.35 225.05 139.3 229.25 142.4C233.55 145.5 238.45 147.75 243.95 149.15C249.55 150.65 255.3 151.4 261.2 151.4C268.5 151.4 274.9 150.55 280.4 148.85C286 147.15 290.65 144.8 294.35 141.8C298.15 138.7 301 135.05 302.9 130.85C304.8 126.65 305.75 122.1 305.75 117.2C305.75 111.2 304.45 106.3 301.85 102.5C299.35 98.6 296.35 95.5 292.85 93.2C289.35 90.9 285.8 89.25 282.2 88.25C278.7 87.15 275.95 86.4 273.95 86C267.25 84.3 261.8 82.9 257.6 81.8C253.5 80.7 250.25 79.6 247.85 78.5C245.55 77.4 244 76.2 243.2 74.9C242.4 73.6 242 71.9 242 69.8C242 67.5 242.5 65.6 243.5 64.1C244.5 62.6 245.75 61.35 247.25 60.35C248.85 59.35 250.6 58.65 252.5 58.25C254.4 57.85 256.3 57.65 258.2 57.65C261.1 57.65 263.75 57.9 266.15 58.4C268.65 58.9 270.85 59.75 272.75 60.95C274.65 62.15 276.15 63.8 277.25 65.9C278.45 68 279.15 70.65 279.35 73.85H302.15C302.15 67.65 300.95 62.4 298.55 58.1C296.25 53.7 293.1 50.1 289.1 47.3C285.1 44.5 280.5 42.5 275.3 41.3C270.2 40 264.85 39.35 259.25 39.35C254.45 39.35 249.65 40 244.85 41.3C240.05 42.6 235.75 44.6 231.95 47.3C228.15 50 225.05 53.4 222.65 57.5C220.35 61.5 219.2 66.25 219.2 71.75C219.2 76.65 220.1 80.85 221.9 84.35C223.8 87.75 226.25 90.6 229.25 92.9C232.25 95.2 235.65 97.1 239.45 98.6C243.25 100 247.15 101.2 251.15 102.2C255.05 103.3 258.9 104.3 262.7 105.2C266.5 106.1 269.9 107.15 272.9 108.35C275.9 109.55 278.3 111.05 280.1 112.85C282 114.65 282.95 117 282.95 119.9C282.95 122.6 282.25 124.85 280.85 126.65C279.45 128.35 277.7 129.7 275.6 130.7C273.5 131.7 271.25 132.4 268.85 132.8C266.45 133.1 264.2 133.25 262.1 133.25C259 133.25 256 132.9 253.1 132.2C250.2 131.4 247.65 130.25 245.45 128.75C243.35 127.15 241.65 125.1 240.35 122.6C239.05 120.1 238.4 117.05 238.4 113.45ZM348.662 135.05C345.262 135.05 342.362 134.35 339.962 132.95C337.562 131.55 335.612 129.75 334.112 127.55C332.712 125.25 331.662 122.6 330.962 119.6C330.362 116.6 330.062 113.55 330.062 110.45C330.062 107.25 330.362 104.15 330.962 101.15C331.562 98.15 332.562 95.5 333.962 93.2C335.462 90.9 337.362 89.05 339.662 87.65C342.062 86.15 345.012 85.4 348.512 85.4C351.912 85.4 354.762 86.15 357.062 87.65C359.462 89.05 361.412 90.95 362.912 93.35C364.412 95.65 365.462 98.3 366.062 101.3C366.762 104.3 367.112 107.35 367.112 110.45C367.112 113.55 366.812 116.6 366.212 119.6C365.612 122.6 364.562 125.25 363.062 127.55C361.662 129.75 359.762 131.55 357.362 132.95C355.062 134.35 352.162 135.05 348.662 135.05ZM309.512 71.45V176.15H330.812V139.4H331.112C333.712 143.2 337.012 146.1 341.012 148.1C345.112 150 349.562 150.95 354.362 150.95C360.062 150.95 365.012 149.85 369.212 147.65C373.512 145.45 377.062 142.5 379.862 138.8C382.762 135.1 384.912 130.85 386.312 126.05C387.712 121.25 388.412 116.25 388.412 111.05C388.412 105.55 387.712 100.3 386.312 95.3C384.912 90.2 382.762 85.75 379.862 81.95C376.962 78.15 373.312 75.1 368.912 72.8C364.512 70.5 359.262 69.35 353.162 69.35C348.362 69.35 343.962 70.3 339.962 72.2C335.962 74.1 332.662 77.15 330.062 81.35H329.762V71.45H309.512ZM392.311 95.3C392.611 90.3 393.861 86.15 396.061 82.85C398.261 79.55 401.061 76.9 404.461 74.9C407.861 72.9 411.661 71.5 415.861 70.7C420.161 69.8 424.461 69.35 428.761 69.35C432.661 69.35 436.611 69.65 440.611 70.25C444.611 70.75 448.261 71.8 451.561 73.4C454.861 75 457.561 77.25 459.661 80.15C461.761 82.95 462.811 86.7 462.811 91.4V131.75C462.811 135.25 463.011 138.6 463.411 141.8C463.811 145 464.511 147.4 465.511 149H443.911C443.511 147.8 443.161 146.6 442.861 145.4C442.661 144.1 442.511 142.8 442.411 141.5C439.011 145 435.011 147.45 430.411 148.85C425.811 150.25 421.111 150.95 416.311 150.95C412.611 150.95 409.161 150.5 405.961 149.6C402.761 148.7 399.961 147.3 397.561 145.4C395.161 143.5 393.261 141.1 391.861 138.2C390.561 135.3 389.911 131.85 389.911 127.85C389.911 123.45 390.661 119.85 392.161 117.05C393.761 114.15 395.761 111.85 398.161 110.15C400.661 108.45 403.461 107.2 406.561 106.4C409.761 105.5 412.961 104.8 416.161 104.3C419.361 103.8 422.511 103.4 425.611 103.1C428.711 102.8 431.461 102.35 433.861 101.75C436.261 101.15 438.161 100.3 439.561 99.2C440.961 98 441.611 96.3 441.511 94.1C441.511 91.8 441.111 90 440.311 88.7C439.611 87.3 438.611 86.25 437.311 85.55C436.111 84.75 434.661 84.25 432.961 84.05C431.361 83.75 429.611 83.6 427.711 83.6C423.511 83.6 420.211 84.5 417.811 86.3C415.411 88.1 414.011 91.1 413.611 95.3H392.311ZM441.511 111.05C440.611 111.85 439.461 112.5 438.061 113C436.761 113.4 435.311 113.75 433.711 114.05C432.211 114.35 430.611 114.6 428.911 114.8C427.211 115 425.511 115.25 423.811 115.55C422.211 115.85 420.611 116.25 419.011 116.75C417.511 117.25 416.161 117.95 414.961 118.85C413.861 119.65 412.961 120.7 412.261 122C411.561 123.3 411.211 124.95 411.211 126.95C411.211 128.85 411.561 130.45 412.261 131.75C412.961 133.05 413.911 134.1 415.111 134.9C416.311 135.6 417.711 136.1 419.311 136.4C420.911 136.7 422.561 136.85 424.261 136.85C428.461 136.85 431.711 136.15 434.011 134.75C436.311 133.35 438.011 131.7 439.111 129.8C440.211 127.8 440.861 125.8 441.061 123.8C441.361 121.8 441.511 120.2 441.511 119V111.05ZM471.344 71.45V149H492.644V114.05C492.644 110.55 492.994 107.3 493.694 104.3C494.394 101.3 495.544 98.7 497.144 96.5C498.844 94.2 501.044 92.4 503.744 91.1C506.444 89.8 509.744 89.15 513.644 89.15C514.944 89.15 516.294 89.25 517.694 89.45C519.094 89.55 520.294 89.7 521.294 89.9V70.1C519.594 69.6 518.044 69.35 516.644 69.35C513.944 69.35 511.344 69.75 508.844 70.55C506.344 71.35 503.994 72.5 501.794 74C499.594 75.4 497.644 77.15 495.944 79.25C494.244 81.25 492.894 83.45 491.894 85.85H491.594V71.45H471.344ZM520.745 95.3C521.045 90.3 522.295 86.15 524.495 82.85C526.695 79.55 529.495 76.9 532.895 74.9C536.295 72.9 540.095 71.5 544.295 70.7C548.595 69.8 552.895 69.35 557.195 69.35C561.095 69.35 565.045 69.65 569.045 70.25C573.045 70.75 576.695 71.8 579.995 73.4C583.295 75 585.995 77.25 588.095 80.15C590.195 82.95 591.245 86.7 591.245 91.4V131.75C591.245 135.25 591.445 138.6 591.845 141.8C592.245 145 592.945 147.4 593.945 149H572.345C571.945 147.8 571.595 146.6 571.295 145.4C571.095 144.1 570.945 142.8 570.845 141.5C567.445 145 563.445 147.45 558.845 148.85C554.245 150.25 549.545 150.95 544.745 150.95C541.045 150.95 537.595 150.5 534.395 149.6C531.195 148.7 528.395 147.3 525.995 145.4C523.595 143.5 521.695 141.1 520.295 138.2C518.995 135.3 518.345 131.85 518.345 127.85C518.345 123.45 519.095 119.85 520.595 117.05C522.195 114.15 524.195 111.85 526.595 110.15C529.095 108.45 531.895 107.2 534.995 106.4C538.195 105.5 541.395 104.8 544.595 104.3C547.795 103.8 550.945 103.4 554.045 103.1C557.145 102.8 559.895 102.35 562.295 101.75C564.695 101.15 566.595 100.3 567.995 99.2C569.395 98 570.045 96.3 569.945 94.1C569.945 91.8 569.545 90 568.745 88.7C568.045 87.3 567.045 86.25 565.745 85.55C564.545 84.75 563.095 84.25 561.395 84.05C559.795 83.75 558.045 83.6 556.145 83.6C551.945 83.6 548.645 84.5 546.245 86.3C543.845 88.1 542.445 91.1 542.045 95.3H520.745ZM569.945 111.05C569.045 111.85 567.895 112.5 566.495 113C565.195 113.4 563.745 113.75 562.145 114.05C560.645 114.35 559.045 114.6 557.345 114.8C555.645 115 553.945 115.25 552.245 115.55C550.645 115.85 549.045 116.25 547.445 116.75C545.945 117.25 544.595 117.95 543.395 118.85C542.295 119.65 541.395 120.7 540.695 122C539.995 123.3 539.645 124.95 539.645 126.95C539.645 128.85 539.995 130.45 540.695 131.75C541.395 133.05 542.345 134.1 543.545 134.9C544.745 135.6 546.145 136.1 547.745 136.4C549.345 136.7 550.995 136.85 552.695 136.85C556.895 136.85 560.145 136.15 562.445 134.75C564.745 133.35 566.445 131.7 567.545 129.8C568.645 127.8 569.295 125.8 569.495 123.8C569.795 121.8 569.945 120.2 569.945 119V111.05ZM599.778 71.45V149H621.078V108.35C621.078 100.45 622.378 94.8 624.978 91.4C627.578 87.9 631.778 86.15 637.578 86.15C642.678 86.15 646.228 87.75 648.228 90.95C650.228 94.05 651.228 98.8 651.228 105.2V149H672.528V101.3C672.528 96.5 672.078 92.15 671.178 88.25C670.378 84.25 668.928 80.9 666.828 78.2C664.728 75.4 661.828 73.25 658.128 71.75C654.528 70.15 649.878 69.35 644.178 69.35C639.678 69.35 635.278 70.4 630.978 72.5C626.678 74.5 623.178 77.75 620.478 82.25H620.028V71.45H599.778ZM699.594 110.3C699.594 107.2 699.894 104.15 700.494 101.15C701.094 98.15 702.094 95.5 703.494 93.2C704.994 90.9 706.944 89.05 709.344 87.65C711.744 86.15 714.744 85.4 718.344 85.4C721.944 85.4 724.944 86.15 727.344 87.65C729.844 89.05 731.794 90.9 733.194 93.2C734.694 95.5 735.744 98.15 736.344 101.15C736.944 104.15 737.244 107.2 737.244 110.3C737.244 113.4 736.944 116.45 736.344 119.45C735.744 122.35 734.694 125 733.194 127.4C731.794 129.7 729.844 131.55 727.344 132.95C724.944 134.35 721.944 135.05 718.344 135.05C714.744 135.05 711.744 134.35 709.344 132.95C706.944 131.55 704.994 129.7 703.494 127.4C702.094 125 701.094 122.35 700.494 119.45C699.894 116.45 699.594 113.4 699.594 110.3ZM678.294 110.3C678.294 116.5 679.244 122.1 681.144 127.1C683.044 132.1 685.744 136.4 689.244 140C692.744 143.5 696.944 146.2 701.844 148.1C706.744 150 712.244 150.95 718.344 150.95C724.444 150.95 729.944 150 734.844 148.1C739.844 146.2 744.094 143.5 747.594 140C751.094 136.4 753.794 132.1 755.694 127.1C757.594 122.1 758.544 116.5 758.544 110.3C758.544 104.1 757.594 98.5 755.694 93.5C753.794 88.4 751.094 84.1 747.594 80.6C744.094 77 739.844 74.25 734.844 72.35C729.944 70.35 724.444 69.35 718.344 69.35C712.244 69.35 706.744 70.35 701.844 72.35C696.944 74.25 692.744 77 689.244 80.6C685.744 84.1 683.044 88.4 681.144 93.5C679.244 98.5 678.294 104.1 678.294 110.3ZM786.293 59.45V41.9H764.993V59.45H786.293ZM764.993 71.45V149H786.293V71.45H764.993ZM850.115 110C850.115 113.2 849.815 116.3 849.215 119.3C848.615 122.3 847.615 125 846.215 127.4C844.815 129.7 842.915 131.55 840.515 132.95C838.215 134.35 835.315 135.05 831.815 135.05C828.515 135.05 825.665 134.35 823.265 132.95C820.965 131.45 819.015 129.55 817.415 127.25C815.915 124.85 814.815 122.15 814.115 119.15C813.415 116.15 813.065 113.15 813.065 110.15C813.065 106.95 813.365 103.9 813.965 101C814.665 98 815.715 95.35 817.115 93.05C818.615 90.75 820.565 88.9 822.965 87.5C825.365 86.1 828.315 85.4 831.815 85.4C835.315 85.4 838.215 86.1 840.515 87.5C842.815 88.9 844.665 90.75 846.065 93.05C847.565 95.25 848.615 97.85 849.215 100.85C849.815 103.75 850.115 106.8 850.115 110ZM850.415 139.1V149H870.665V41.9H849.365V80.9H849.065C846.665 77.1 843.365 74.25 839.165 72.35C835.065 70.35 830.715 69.35 826.115 69.35C820.415 69.35 815.415 70.5 811.115 72.8C806.815 75 803.215 77.95 800.315 81.65C797.515 85.35 795.365 89.65 793.865 94.55C792.465 99.35 791.765 104.35 791.765 109.55C791.765 114.95 792.465 120.15 793.865 125.15C795.365 130.15 797.515 134.6 800.315 138.5C803.215 142.3 806.865 145.35 811.265 147.65C815.665 149.85 820.765 150.95 826.565 150.95C831.665 150.95 836.215 150.05 840.215 148.25C844.315 146.35 847.615 143.3 850.115 139.1H850.415Z" fill="#A212D1"/>
<path fill-rule="evenodd" clip-rule="evenodd" d="M90 180C139.706 180 180 139.706 180 90C180 40.2944 139.706 0 90 0C40.2944 0 0 40.2944 0 90C0 139.706 40.2944 180 90 180ZM90 168C133.078 168 168 133.078 168 90C168 46.9218 133.078 12 90 12C46.9218 12 12 46.9218 12 90C12 133.078 46.9218 168 90 168ZM90 163C130.317 163 163 130.317 163 90C163 49.6832 130.317 17 90 17C49.6832 17 17 49.6832 17 90C17 130.317 49.6832 163 90 163ZM90 141C118.167 141 141 118.167 141 90C141 61.8335 118.167 39 90 39C61.8335 39 39 61.8335 39 90C39 118.167 61.8335 141 90 141Z" fill="#A212D1"/>
<mask id="mask0" style="mask-type:alpha" maskUnits="userSpaceOnUse" x="0" y="0" width="180" height="180">
<path fill-rule="evenodd" clip-rule="evenodd" d="M90 180C139.706 180 180 139.706 180 90C180 40.2944 139.706 0 90 0C40.2944 0 0 40.2944 0 90C0 139.706 40.2944 180 90 180ZM90 168C133.078 168 168 133.078 168 90C168 46.9218 133.078 12 90 12C46.9218 12 12 46.9218 12 90C12 133.078 46.9218 168 90 168ZM90 163C130.317 163 163 130.317 163 90C163 49.6832 130.317 17 90 17C49.6832 17 17 49.6832 17 90C17 130.317 49.6832 163 90 163ZM90 141C118.167 141 141 118.167 141 90C141 61.8335 118.167 39 90 39C61.8335 39 39 61.8335 39 90C39 118.167 61.8335 141 90 141Z" fill="white"/>
</mask>
<g mask="url(#mask0)">
<rect width="180" height="180" fill="#A212D1"/>
</g>
</svg>
